# xmcd
#
# Track frame offsets:
#	150
#	14700
#	31727
#	45825
#	63297
#	77022
#	90622
#	105750
#	121122
#	136592
#	153672
#	170927
#
# Disc length: 2463 seconds
#
# Revision: 1
# Processed by: cddbd v1.5.2PL0 Copyright (c) Steve Scherf et al.
# Submitted via: audiograbber 1.83.01
#
DISCID=86099d0c
DTITLE=Steve Bart - Summer Fire Light
DYEAR=1997
DGENRE=Country
TTITLE0=Summer fire light
TTITLE1=You never know
TTITLE2=If you really knew
TTITLE3=Teddy bear's boppin' tonight
TTITLE4=Uptown
TTITLE5=No good iin goodbye
TTITLE6=Anybody wanna dance
TTITLE7=My sensitive side
TTITLE8=I don't go where I'm not invited
TTITLE9=Hello Blues
TTITLE10=I can't hide from the sun
TTITLE11=You're the star
EXTD=
EXTT0=
EXTT1=
EXTT2=
EXTT3=
EXTT4=
EXTT5=
EXTT6=
EXTT7=
EXTT8=
EXTT9=
EXTT10=
EXTT11=
PLAYORDER=
